G04 #@! TF.GenerationSoftware,KiCad,Pcbnew,(5.1.5)-3*
G04 #@! TF.CreationDate,2023-08-31T22:46:46+02:00*
G04 #@! TF.ProjectId,usb-trace-adapter,7573622d-7472-4616-9365-2d6164617074,A*
G04 #@! TF.SameCoordinates,PX57b03e0PY53d00e0*
G04 #@! TF.FileFunction,Copper,L2,Bot*
G04 #@! TF.FilePolarity,Positive*
%FSLAX46Y46*%
G04 Gerber Fmt 4.6, Leading zero omitted, Abs format (unit mm)*
G04 Created by KiCad (PCBNEW (5.1.5)-3) date 2023-08-31 22:46:46*
%MOMM*%
%LPD*%
G04 APERTURE LIST*
%ADD10C,0.050000*%
%ADD11C,1.600000*%
%ADD12R,1.600000X1.600000*%
%ADD13C,3.000000*%
%ADD14O,1.700000X1.700000*%
%ADD15R,1.700000X1.700000*%
%ADD16C,3.400000*%
%ADD17C,0.254000*%
G04 APERTURE END LIST*
D10*
X11430000Y0D02*
X20955000Y0D01*
X6985000Y1270000D02*
X10160000Y1270000D01*
X10160000Y1270000D02*
G75*
G02X11430000Y0I0J-1270000D01*
G01*
X5715000Y0D02*
G75*
G02X6985000Y1270000I1270000J0D01*
G01*
X11430000Y18796000D02*
X20955000Y18796000D01*
X11430000Y17272000D02*
X11430000Y18796000D01*
X5715000Y17272000D02*
X5715000Y18796000D01*
X10160000Y16002000D02*
X6985000Y16002000D01*
X11430000Y17272000D02*
G75*
G02X10160000Y16002000I-1270000J0D01*
G01*
X6985000Y16002000D02*
G75*
G02X5715000Y17272000I0J1270000D01*
G01*
X0Y18796000D02*
X0Y0D01*
X5715000Y18796000D02*
X0Y18796000D01*
X20955000Y0D02*
X20955000Y18796000D01*
X0Y0D02*
X5715000Y0D01*
D11*
X13208000Y12969000D03*
X13208000Y10469000D03*
X13208000Y8469000D03*
D12*
X13208000Y5969000D03*
D13*
X15918000Y2899000D03*
X15918000Y16039000D03*
D14*
X7747000Y12969000D03*
X7747000Y10429000D03*
X7747000Y7889000D03*
D15*
X7747000Y5349000D03*
D16*
X2656000Y15319000D03*
X2656000Y3619000D03*
D11*
X4456000Y12969000D03*
X4456000Y10469000D03*
X4456000Y8469000D03*
X4456000Y5969000D03*
D17*
G36*
X5055000Y17239582D02*
G01*
X5057802Y17211136D01*
X5057747Y17203318D01*
X5058646Y17194147D01*
X5084554Y16947643D01*
X5096589Y16889014D01*
X5107792Y16830284D01*
X5110456Y16821462D01*
X5183751Y16584686D01*
X5206931Y16529543D01*
X5229339Y16474080D01*
X5233665Y16465946D01*
X5233667Y16465941D01*
X5233670Y16465936D01*
X5351553Y16247914D01*
X5384988Y16198346D01*
X5417759Y16148265D01*
X5423584Y16141124D01*
X5581577Y15950144D01*
X5624012Y15908005D01*
X5665875Y15865255D01*
X5672976Y15859382D01*
X5865053Y15702727D01*
X5914875Y15669626D01*
X5964237Y15635827D01*
X5972343Y15631444D01*
X6191191Y15515081D01*
X6246479Y15492293D01*
X6301475Y15468721D01*
X6310278Y15465997D01*
X6547559Y15394357D01*
X6606246Y15382736D01*
X6664752Y15370300D01*
X6673915Y15369337D01*
X6673917Y15369337D01*
X6920595Y15345150D01*
X6920598Y15345150D01*
X6952581Y15342000D01*
X10192419Y15342000D01*
X10220865Y15344802D01*
X10228682Y15344747D01*
X10237853Y15345646D01*
X10484357Y15371554D01*
X10542986Y15383589D01*
X10601716Y15394792D01*
X10610532Y15397454D01*
X10610536Y15397455D01*
X10610539Y15397456D01*
X10847314Y15470751D01*
X10902457Y15493931D01*
X10957920Y15516339D01*
X10966054Y15520665D01*
X10966059Y15520667D01*
X10966064Y15520670D01*
X11184086Y15638553D01*
X11233654Y15671988D01*
X11283735Y15704759D01*
X11290876Y15710584D01*
X11481856Y15868577D01*
X11523995Y15911012D01*
X11566745Y15952875D01*
X11572618Y15959976D01*
X11729273Y16152053D01*
X11762374Y16201875D01*
X11796173Y16251237D01*
X11800556Y16259343D01*
X11916919Y16478191D01*
X11939707Y16533479D01*
X11963279Y16588475D01*
X11966003Y16597278D01*
X12037643Y16834559D01*
X12049264Y16893246D01*
X12061700Y16951752D01*
X12062663Y16960917D01*
X12086850Y17207595D01*
X12086850Y17207598D01*
X12090000Y17239581D01*
X12090000Y18136000D01*
X15516683Y18136000D01*
X15295244Y18091953D01*
X14906698Y17931012D01*
X14557017Y17697363D01*
X14259637Y17399983D01*
X14025988Y17050302D01*
X13865047Y16661756D01*
X13783000Y16249279D01*
X13783000Y15828721D01*
X13865047Y15416244D01*
X14025988Y15027698D01*
X14259637Y14678017D01*
X14557017Y14380637D01*
X14906698Y14146988D01*
X15295244Y13986047D01*
X15707721Y13904000D01*
X16128279Y13904000D01*
X16540756Y13986047D01*
X16929302Y14146988D01*
X17278983Y14380637D01*
X17576363Y14678017D01*
X17810012Y15027698D01*
X17970953Y15416244D01*
X18053000Y15828721D01*
X18053000Y16249279D01*
X17970953Y16661756D01*
X17810012Y17050302D01*
X17576363Y17399983D01*
X17278983Y17697363D01*
X16929302Y17931012D01*
X16540756Y18091953D01*
X16319317Y18136000D01*
X20295001Y18136000D01*
X20295000Y660000D01*
X11969704Y660000D01*
X11961249Y687314D01*
X11938074Y742445D01*
X11915661Y797920D01*
X11911334Y806056D01*
X11793446Y1024086D01*
X11760012Y1073654D01*
X11727240Y1123735D01*
X11721416Y1130876D01*
X11563423Y1321856D01*
X11520988Y1363995D01*
X11479125Y1406745D01*
X11472024Y1412619D01*
X11279946Y1569273D01*
X11230169Y1602345D01*
X11180763Y1636174D01*
X11172657Y1640556D01*
X10953809Y1756919D01*
X10898532Y1779702D01*
X10843525Y1803279D01*
X10834722Y1806003D01*
X10597441Y1877643D01*
X10538754Y1889264D01*
X10480248Y1901700D01*
X10471085Y1902663D01*
X10471083Y1902663D01*
X10224405Y1926850D01*
X10224402Y1926850D01*
X10192419Y1930000D01*
X6952581Y1930000D01*
X6924135Y1927198D01*
X6916318Y1927253D01*
X6907147Y1926354D01*
X6660644Y1900446D01*
X6602028Y1888414D01*
X6543284Y1877208D01*
X6534462Y1874544D01*
X6297686Y1801249D01*
X6242555Y1778074D01*
X6187080Y1755661D01*
X6178944Y1751334D01*
X5960914Y1633446D01*
X5911346Y1600012D01*
X5861265Y1567240D01*
X5854124Y1561416D01*
X5663144Y1403423D01*
X5621005Y1360988D01*
X5578255Y1319125D01*
X5572381Y1312024D01*
X5415727Y1119946D01*
X5382655Y1070169D01*
X5348826Y1020763D01*
X5344444Y1012657D01*
X5228081Y793809D01*
X5205298Y738532D01*
X5181721Y683525D01*
X5178997Y674722D01*
X5174552Y660000D01*
X660000Y660000D01*
X660000Y2403336D01*
X842287Y2130524D01*
X1167524Y1805287D01*
X1549963Y1549750D01*
X1974906Y1373733D01*
X2426023Y1284000D01*
X2885977Y1284000D01*
X3337094Y1373733D01*
X3762037Y1549750D01*
X4144476Y1805287D01*
X4469713Y2130524D01*
X4725250Y2512963D01*
X4901267Y2937906D01*
X4935355Y3109279D01*
X13783000Y3109279D01*
X13783000Y2688721D01*
X13865047Y2276244D01*
X14025988Y1887698D01*
X14259637Y1538017D01*
X14557017Y1240637D01*
X14906698Y1006988D01*
X15295244Y846047D01*
X15707721Y764000D01*
X16128279Y764000D01*
X16540756Y846047D01*
X16929302Y1006988D01*
X17278983Y1240637D01*
X17576363Y1538017D01*
X17810012Y1887698D01*
X17970953Y2276244D01*
X18053000Y2688721D01*
X18053000Y3109279D01*
X17970953Y3521756D01*
X17810012Y3910302D01*
X17576363Y4259983D01*
X17278983Y4557363D01*
X16929302Y4791012D01*
X16540756Y4951953D01*
X16128279Y5034000D01*
X15707721Y5034000D01*
X15295244Y4951953D01*
X14906698Y4791012D01*
X14557017Y4557363D01*
X14259637Y4259983D01*
X14025988Y3910302D01*
X13865047Y3521756D01*
X13783000Y3109279D01*
X4935355Y3109279D01*
X4991000Y3389023D01*
X4991000Y3848977D01*
X4901267Y4300094D01*
X4788620Y4572049D01*
X4874574Y4589147D01*
X5135727Y4697320D01*
X5370759Y4854363D01*
X5570637Y5054241D01*
X5727680Y5289273D01*
X5835853Y5550426D01*
X5891000Y5827665D01*
X5891000Y6110335D01*
X5873364Y6199000D01*
X6258928Y6199000D01*
X6258928Y4499000D01*
X6271188Y4374518D01*
X6307498Y4254820D01*
X6366463Y4144506D01*
X6445815Y4047815D01*
X6542506Y3968463D01*
X6652820Y3909498D01*
X6772518Y3873188D01*
X6897000Y3860928D01*
X8597000Y3860928D01*
X8721482Y3873188D01*
X8841180Y3909498D01*
X8951494Y3968463D01*
X9048185Y4047815D01*
X9127537Y4144506D01*
X9186502Y4254820D01*
X9222812Y4374518D01*
X9235072Y4499000D01*
X9235072Y6199000D01*
X9222812Y6323482D01*
X9186502Y6443180D01*
X9127537Y6553494D01*
X9048185Y6650185D01*
X8951494Y6729537D01*
X8877666Y6769000D01*
X11769928Y6769000D01*
X11769928Y5169000D01*
X11782188Y5044518D01*
X11818498Y4924820D01*
X11877463Y4814506D01*
X11956815Y4717815D01*
X12053506Y4638463D01*
X12163820Y4579498D01*
X12283518Y4543188D01*
X12408000Y4530928D01*
X14008000Y4530928D01*
X14132482Y4543188D01*
X14252180Y4579498D01*
X14362494Y4638463D01*
X14459185Y4717815D01*
X14538537Y4814506D01*
X14597502Y4924820D01*
X14633812Y5044518D01*
X14646072Y5169000D01*
X14646072Y6769000D01*
X14633812Y6893482D01*
X14597502Y7013180D01*
X14538537Y7123494D01*
X14459185Y7220185D01*
X14362494Y7299537D01*
X14252180Y7358502D01*
X14156057Y7387661D01*
X14322637Y7554241D01*
X14479680Y7789273D01*
X14587853Y8050426D01*
X14643000Y8327665D01*
X14643000Y8610335D01*
X14587853Y8887574D01*
X14479680Y9148727D01*
X14322637Y9383759D01*
X14237396Y9469000D01*
X14322637Y9554241D01*
X14479680Y9789273D01*
X14587853Y10050426D01*
X14643000Y10327665D01*
X14643000Y10610335D01*
X14587853Y10887574D01*
X14479680Y11148727D01*
X14322637Y11383759D01*
X14122759Y11583637D01*
X13922131Y11717692D01*
X13949514Y11732329D01*
X14021097Y11976298D01*
X13208000Y12789395D01*
X12394903Y11976298D01*
X12466486Y11732329D01*
X12495341Y11718676D01*
X12293241Y11583637D01*
X12093363Y11383759D01*
X11936320Y11148727D01*
X11828147Y10887574D01*
X11773000Y10610335D01*
X11773000Y10327665D01*
X11828147Y10050426D01*
X11936320Y9789273D01*
X12093363Y9554241D01*
X12178604Y9469000D01*
X12093363Y9383759D01*
X11936320Y9148727D01*
X11828147Y8887574D01*
X11773000Y8610335D01*
X11773000Y8327665D01*
X11828147Y8050426D01*
X11936320Y7789273D01*
X12093363Y7554241D01*
X12259943Y7387661D01*
X12163820Y7358502D01*
X12053506Y7299537D01*
X11956815Y7220185D01*
X11877463Y7123494D01*
X11818498Y7013180D01*
X11782188Y6893482D01*
X11769928Y6769000D01*
X8877666Y6769000D01*
X8841180Y6788502D01*
X8768620Y6810513D01*
X8900475Y6942368D01*
X9062990Y7185589D01*
X9174932Y7455842D01*
X9232000Y7742740D01*
X9232000Y8035260D01*
X9174932Y8322158D01*
X9062990Y8592411D01*
X8900475Y8835632D01*
X8693632Y9042475D01*
X8519240Y9159000D01*
X8693632Y9275525D01*
X8900475Y9482368D01*
X9062990Y9725589D01*
X9174932Y9995842D01*
X9232000Y10282740D01*
X9232000Y10575260D01*
X9174932Y10862158D01*
X9062990Y11132411D01*
X8900475Y11375632D01*
X8693632Y11582475D01*
X8511466Y11704195D01*
X8628355Y11773822D01*
X8844588Y11968731D01*
X9018641Y12202080D01*
X9143825Y12464901D01*
X9188476Y12612110D01*
X9067155Y12842000D01*
X7874000Y12842000D01*
X7874000Y12822000D01*
X7620000Y12822000D01*
X7620000Y12842000D01*
X6426845Y12842000D01*
X6305524Y12612110D01*
X6350175Y12464901D01*
X6475359Y12202080D01*
X6649412Y11968731D01*
X6865645Y11773822D01*
X6982534Y11704195D01*
X6800368Y11582475D01*
X6593525Y11375632D01*
X6431010Y11132411D01*
X6319068Y10862158D01*
X6262000Y10575260D01*
X6262000Y10282740D01*
X6319068Y9995842D01*
X6431010Y9725589D01*
X6593525Y9482368D01*
X6800368Y9275525D01*
X6974760Y9159000D01*
X6800368Y9042475D01*
X6593525Y8835632D01*
X6431010Y8592411D01*
X6319068Y8322158D01*
X6262000Y8035260D01*
X6262000Y7742740D01*
X6319068Y7455842D01*
X6431010Y7185589D01*
X6593525Y6942368D01*
X6725380Y6810513D01*
X6652820Y6788502D01*
X6542506Y6729537D01*
X6445815Y6650185D01*
X6366463Y6553494D01*
X6307498Y6443180D01*
X6271188Y6323482D01*
X6258928Y6199000D01*
X5873364Y6199000D01*
X5835853Y6387574D01*
X5727680Y6648727D01*
X5570637Y6883759D01*
X5370759Y7083637D01*
X5168173Y7219000D01*
X5370759Y7354363D01*
X5570637Y7554241D01*
X5727680Y7789273D01*
X5835853Y8050426D01*
X5891000Y8327665D01*
X5891000Y8610335D01*
X5835853Y8887574D01*
X5727680Y9148727D01*
X5570637Y9383759D01*
X5485396Y9469000D01*
X5570637Y9554241D01*
X5727680Y9789273D01*
X5835853Y10050426D01*
X5891000Y10327665D01*
X5891000Y10610335D01*
X5835853Y10887574D01*
X5727680Y11148727D01*
X5570637Y11383759D01*
X5370759Y11583637D01*
X5170131Y11717692D01*
X5197514Y11732329D01*
X5269097Y11976298D01*
X4456000Y12789395D01*
X4441858Y12775252D01*
X4262253Y12954857D01*
X4276395Y12969000D01*
X4635605Y12969000D01*
X5448702Y12155903D01*
X5692671Y12227486D01*
X5813571Y12482996D01*
X5882300Y12757184D01*
X5889265Y12898488D01*
X11767783Y12898488D01*
X11809213Y12618870D01*
X11904397Y12352708D01*
X11971329Y12227486D01*
X12215298Y12155903D01*
X13028395Y12969000D01*
X13387605Y12969000D01*
X14200702Y12155903D01*
X14444671Y12227486D01*
X14565571Y12482996D01*
X14634300Y12757184D01*
X14648217Y13039512D01*
X14606787Y13319130D01*
X14511603Y13585292D01*
X14444671Y13710514D01*
X14200702Y13782097D01*
X13387605Y12969000D01*
X13028395Y12969000D01*
X12215298Y13782097D01*
X11971329Y13710514D01*
X11850429Y13455004D01*
X11781700Y13180816D01*
X11767783Y12898488D01*
X5889265Y12898488D01*
X5896217Y13039512D01*
X5854787Y13319130D01*
X5852370Y13325890D01*
X6305524Y13325890D01*
X6426845Y13096000D01*
X7620000Y13096000D01*
X7620000Y14289814D01*
X7874000Y14289814D01*
X7874000Y13096000D01*
X9067155Y13096000D01*
X9188476Y13325890D01*
X9143825Y13473099D01*
X9018641Y13735920D01*
X8850233Y13961702D01*
X12394903Y13961702D01*
X13208000Y13148605D01*
X14021097Y13961702D01*
X13949514Y14205671D01*
X13694004Y14326571D01*
X13419816Y14395300D01*
X13137488Y14409217D01*
X12857870Y14367787D01*
X12591708Y14272603D01*
X12466486Y14205671D01*
X12394903Y13961702D01*
X8850233Y13961702D01*
X8844588Y13969269D01*
X8628355Y14164178D01*
X8378252Y14313157D01*
X8103891Y14410481D01*
X7874000Y14289814D01*
X7620000Y14289814D01*
X7390109Y14410481D01*
X7115748Y14313157D01*
X6865645Y14164178D01*
X6649412Y13969269D01*
X6475359Y13735920D01*
X6350175Y13473099D01*
X6305524Y13325890D01*
X5852370Y13325890D01*
X5759603Y13585292D01*
X5692671Y13710514D01*
X5448702Y13782097D01*
X4635605Y12969000D01*
X4276395Y12969000D01*
X4262253Y12983142D01*
X4441858Y13162747D01*
X4456000Y13148605D01*
X5269097Y13961702D01*
X5197514Y14205671D01*
X4942004Y14326571D01*
X4788270Y14365107D01*
X4901267Y14637906D01*
X4991000Y15089023D01*
X4991000Y15548977D01*
X4901267Y16000094D01*
X4725250Y16425037D01*
X4469713Y16807476D01*
X4144476Y17132713D01*
X3762037Y17388250D01*
X3337094Y17564267D01*
X2885977Y17654000D01*
X2426023Y17654000D01*
X1974906Y17564267D01*
X1549963Y17388250D01*
X1167524Y17132713D01*
X842287Y16807476D01*
X660000Y16534664D01*
X660000Y18136000D01*
X5055001Y18136000D01*
X5055000Y17239582D01*
G37*
X5055000Y17239582D02*
X5057802Y17211136D01*
X5057747Y17203318D01*
X5058646Y17194147D01*
X5084554Y16947643D01*
X5096589Y16889014D01*
X5107792Y16830284D01*
X5110456Y16821462D01*
X5183751Y16584686D01*
X5206931Y16529543D01*
X5229339Y16474080D01*
X5233665Y16465946D01*
X5233667Y16465941D01*
X5233670Y16465936D01*
X5351553Y16247914D01*
X5384988Y16198346D01*
X5417759Y16148265D01*
X5423584Y16141124D01*
X5581577Y15950144D01*
X5624012Y15908005D01*
X5665875Y15865255D01*
X5672976Y15859382D01*
X5865053Y15702727D01*
X5914875Y15669626D01*
X5964237Y15635827D01*
X5972343Y15631444D01*
X6191191Y15515081D01*
X6246479Y15492293D01*
X6301475Y15468721D01*
X6310278Y15465997D01*
X6547559Y15394357D01*
X6606246Y15382736D01*
X6664752Y15370300D01*
X6673915Y15369337D01*
X6673917Y15369337D01*
X6920595Y15345150D01*
X6920598Y15345150D01*
X6952581Y15342000D01*
X10192419Y15342000D01*
X10220865Y15344802D01*
X10228682Y15344747D01*
X10237853Y15345646D01*
X10484357Y15371554D01*
X10542986Y15383589D01*
X10601716Y15394792D01*
X10610532Y15397454D01*
X10610536Y15397455D01*
X10610539Y15397456D01*
X10847314Y15470751D01*
X10902457Y15493931D01*
X10957920Y15516339D01*
X10966054Y15520665D01*
X10966059Y15520667D01*
X10966064Y15520670D01*
X11184086Y15638553D01*
X11233654Y15671988D01*
X11283735Y15704759D01*
X11290876Y15710584D01*
X11481856Y15868577D01*
X11523995Y15911012D01*
X11566745Y15952875D01*
X11572618Y15959976D01*
X11729273Y16152053D01*
X11762374Y16201875D01*
X11796173Y16251237D01*
X11800556Y16259343D01*
X11916919Y16478191D01*
X11939707Y16533479D01*
X11963279Y16588475D01*
X11966003Y16597278D01*
X12037643Y16834559D01*
X12049264Y16893246D01*
X12061700Y16951752D01*
X12062663Y16960917D01*
X12086850Y17207595D01*
X12086850Y17207598D01*
X12090000Y17239581D01*
X12090000Y18136000D01*
X15516683Y18136000D01*
X15295244Y18091953D01*
X14906698Y17931012D01*
X14557017Y17697363D01*
X14259637Y17399983D01*
X14025988Y17050302D01*
X13865047Y16661756D01*
X13783000Y16249279D01*
X13783000Y15828721D01*
X13865047Y15416244D01*
X14025988Y15027698D01*
X14259637Y14678017D01*
X14557017Y14380637D01*
X14906698Y14146988D01*
X15295244Y13986047D01*
X15707721Y13904000D01*
X16128279Y13904000D01*
X16540756Y13986047D01*
X16929302Y14146988D01*
X17278983Y14380637D01*
X17576363Y14678017D01*
X17810012Y15027698D01*
X17970953Y15416244D01*
X18053000Y15828721D01*
X18053000Y16249279D01*
X17970953Y16661756D01*
X17810012Y17050302D01*
X17576363Y17399983D01*
X17278983Y17697363D01*
X16929302Y17931012D01*
X16540756Y18091953D01*
X16319317Y18136000D01*
X20295001Y18136000D01*
X20295000Y660000D01*
X11969704Y660000D01*
X11961249Y687314D01*
X11938074Y742445D01*
X11915661Y797920D01*
X11911334Y806056D01*
X11793446Y1024086D01*
X11760012Y1073654D01*
X11727240Y1123735D01*
X11721416Y1130876D01*
X11563423Y1321856D01*
X11520988Y1363995D01*
X11479125Y1406745D01*
X11472024Y1412619D01*
X11279946Y1569273D01*
X11230169Y1602345D01*
X11180763Y1636174D01*
X11172657Y1640556D01*
X10953809Y1756919D01*
X10898532Y1779702D01*
X10843525Y1803279D01*
X10834722Y1806003D01*
X10597441Y1877643D01*
X10538754Y1889264D01*
X10480248Y1901700D01*
X10471085Y1902663D01*
X10471083Y1902663D01*
X10224405Y1926850D01*
X10224402Y1926850D01*
X10192419Y1930000D01*
X6952581Y1930000D01*
X6924135Y1927198D01*
X6916318Y1927253D01*
X6907147Y1926354D01*
X6660644Y1900446D01*
X6602028Y1888414D01*
X6543284Y1877208D01*
X6534462Y1874544D01*
X6297686Y1801249D01*
X6242555Y1778074D01*
X6187080Y1755661D01*
X6178944Y1751334D01*
X5960914Y1633446D01*
X5911346Y1600012D01*
X5861265Y1567240D01*
X5854124Y1561416D01*
X5663144Y1403423D01*
X5621005Y1360988D01*
X5578255Y1319125D01*
X5572381Y1312024D01*
X5415727Y1119946D01*
X5382655Y1070169D01*
X5348826Y1020763D01*
X5344444Y1012657D01*
X5228081Y793809D01*
X5205298Y738532D01*
X5181721Y683525D01*
X5178997Y674722D01*
X5174552Y660000D01*
X660000Y660000D01*
X660000Y2403336D01*
X842287Y2130524D01*
X1167524Y1805287D01*
X1549963Y1549750D01*
X1974906Y1373733D01*
X2426023Y1284000D01*
X2885977Y1284000D01*
X3337094Y1373733D01*
X3762037Y1549750D01*
X4144476Y1805287D01*
X4469713Y2130524D01*
X4725250Y2512963D01*
X4901267Y2937906D01*
X4935355Y3109279D01*
X13783000Y3109279D01*
X13783000Y2688721D01*
X13865047Y2276244D01*
X14025988Y1887698D01*
X14259637Y1538017D01*
X14557017Y1240637D01*
X14906698Y1006988D01*
X15295244Y846047D01*
X15707721Y764000D01*
X16128279Y764000D01*
X16540756Y846047D01*
X16929302Y1006988D01*
X17278983Y1240637D01*
X17576363Y1538017D01*
X17810012Y1887698D01*
X17970953Y2276244D01*
X18053000Y2688721D01*
X18053000Y3109279D01*
X17970953Y3521756D01*
X17810012Y3910302D01*
X17576363Y4259983D01*
X17278983Y4557363D01*
X16929302Y4791012D01*
X16540756Y4951953D01*
X16128279Y5034000D01*
X15707721Y5034000D01*
X15295244Y4951953D01*
X14906698Y4791012D01*
X14557017Y4557363D01*
X14259637Y4259983D01*
X14025988Y3910302D01*
X13865047Y3521756D01*
X13783000Y3109279D01*
X4935355Y3109279D01*
X4991000Y3389023D01*
X4991000Y3848977D01*
X4901267Y4300094D01*
X4788620Y4572049D01*
X4874574Y4589147D01*
X5135727Y4697320D01*
X5370759Y4854363D01*
X5570637Y5054241D01*
X5727680Y5289273D01*
X5835853Y5550426D01*
X5891000Y5827665D01*
X5891000Y6110335D01*
X5873364Y6199000D01*
X6258928Y6199000D01*
X6258928Y4499000D01*
X6271188Y4374518D01*
X6307498Y4254820D01*
X6366463Y4144506D01*
X6445815Y4047815D01*
X6542506Y3968463D01*
X6652820Y3909498D01*
X6772518Y3873188D01*
X6897000Y3860928D01*
X8597000Y3860928D01*
X8721482Y3873188D01*
X8841180Y3909498D01*
X8951494Y3968463D01*
X9048185Y4047815D01*
X9127537Y4144506D01*
X9186502Y4254820D01*
X9222812Y4374518D01*
X9235072Y4499000D01*
X9235072Y6199000D01*
X9222812Y6323482D01*
X9186502Y6443180D01*
X9127537Y6553494D01*
X9048185Y6650185D01*
X8951494Y6729537D01*
X8877666Y6769000D01*
X11769928Y6769000D01*
X11769928Y5169000D01*
X11782188Y5044518D01*
X11818498Y4924820D01*
X11877463Y4814506D01*
X11956815Y4717815D01*
X12053506Y4638463D01*
X12163820Y4579498D01*
X12283518Y4543188D01*
X12408000Y4530928D01*
X14008000Y4530928D01*
X14132482Y4543188D01*
X14252180Y4579498D01*
X14362494Y4638463D01*
X14459185Y4717815D01*
X14538537Y4814506D01*
X14597502Y4924820D01*
X14633812Y5044518D01*
X14646072Y5169000D01*
X14646072Y6769000D01*
X14633812Y6893482D01*
X14597502Y7013180D01*
X14538537Y7123494D01*
X14459185Y7220185D01*
X14362494Y7299537D01*
X14252180Y7358502D01*
X14156057Y7387661D01*
X14322637Y7554241D01*
X14479680Y7789273D01*
X14587853Y8050426D01*
X14643000Y8327665D01*
X14643000Y8610335D01*
X14587853Y8887574D01*
X14479680Y9148727D01*
X14322637Y9383759D01*
X14237396Y9469000D01*
X14322637Y9554241D01*
X14479680Y9789273D01*
X14587853Y10050426D01*
X14643000Y10327665D01*
X14643000Y10610335D01*
X14587853Y10887574D01*
X14479680Y11148727D01*
X14322637Y11383759D01*
X14122759Y11583637D01*
X13922131Y11717692D01*
X13949514Y11732329D01*
X14021097Y11976298D01*
X13208000Y12789395D01*
X12394903Y11976298D01*
X12466486Y11732329D01*
X12495341Y11718676D01*
X12293241Y11583637D01*
X12093363Y11383759D01*
X11936320Y11148727D01*
X11828147Y10887574D01*
X11773000Y10610335D01*
X11773000Y10327665D01*
X11828147Y10050426D01*
X11936320Y9789273D01*
X12093363Y9554241D01*
X12178604Y9469000D01*
X12093363Y9383759D01*
X11936320Y9148727D01*
X11828147Y8887574D01*
X11773000Y8610335D01*
X11773000Y8327665D01*
X11828147Y8050426D01*
X11936320Y7789273D01*
X12093363Y7554241D01*
X12259943Y7387661D01*
X12163820Y7358502D01*
X12053506Y7299537D01*
X11956815Y7220185D01*
X11877463Y7123494D01*
X11818498Y7013180D01*
X11782188Y6893482D01*
X11769928Y6769000D01*
X8877666Y6769000D01*
X8841180Y6788502D01*
X8768620Y6810513D01*
X8900475Y6942368D01*
X9062990Y7185589D01*
X9174932Y7455842D01*
X9232000Y7742740D01*
X9232000Y8035260D01*
X9174932Y8322158D01*
X9062990Y8592411D01*
X8900475Y8835632D01*
X8693632Y9042475D01*
X8519240Y9159000D01*
X8693632Y9275525D01*
X8900475Y9482368D01*
X9062990Y9725589D01*
X9174932Y9995842D01*
X9232000Y10282740D01*
X9232000Y10575260D01*
X9174932Y10862158D01*
X9062990Y11132411D01*
X8900475Y11375632D01*
X8693632Y11582475D01*
X8511466Y11704195D01*
X8628355Y11773822D01*
X8844588Y11968731D01*
X9018641Y12202080D01*
X9143825Y12464901D01*
X9188476Y12612110D01*
X9067155Y12842000D01*
X7874000Y12842000D01*
X7874000Y12822000D01*
X7620000Y12822000D01*
X7620000Y12842000D01*
X6426845Y12842000D01*
X6305524Y12612110D01*
X6350175Y12464901D01*
X6475359Y12202080D01*
X6649412Y11968731D01*
X6865645Y11773822D01*
X6982534Y11704195D01*
X6800368Y11582475D01*
X6593525Y11375632D01*
X6431010Y11132411D01*
X6319068Y10862158D01*
X6262000Y10575260D01*
X6262000Y10282740D01*
X6319068Y9995842D01*
X6431010Y9725589D01*
X6593525Y9482368D01*
X6800368Y9275525D01*
X6974760Y9159000D01*
X6800368Y9042475D01*
X6593525Y8835632D01*
X6431010Y8592411D01*
X6319068Y8322158D01*
X6262000Y8035260D01*
X6262000Y7742740D01*
X6319068Y7455842D01*
X6431010Y7185589D01*
X6593525Y6942368D01*
X6725380Y6810513D01*
X6652820Y6788502D01*
X6542506Y6729537D01*
X6445815Y6650185D01*
X6366463Y6553494D01*
X6307498Y6443180D01*
X6271188Y6323482D01*
X6258928Y6199000D01*
X5873364Y6199000D01*
X5835853Y6387574D01*
X5727680Y6648727D01*
X5570637Y6883759D01*
X5370759Y7083637D01*
X5168173Y7219000D01*
X5370759Y7354363D01*
X5570637Y7554241D01*
X5727680Y7789273D01*
X5835853Y8050426D01*
X5891000Y8327665D01*
X5891000Y8610335D01*
X5835853Y8887574D01*
X5727680Y9148727D01*
X5570637Y9383759D01*
X5485396Y9469000D01*
X5570637Y9554241D01*
X5727680Y9789273D01*
X5835853Y10050426D01*
X5891000Y10327665D01*
X5891000Y10610335D01*
X5835853Y10887574D01*
X5727680Y11148727D01*
X5570637Y11383759D01*
X5370759Y11583637D01*
X5170131Y11717692D01*
X5197514Y11732329D01*
X5269097Y11976298D01*
X4456000Y12789395D01*
X4441858Y12775252D01*
X4262253Y12954857D01*
X4276395Y12969000D01*
X4635605Y12969000D01*
X5448702Y12155903D01*
X5692671Y12227486D01*
X5813571Y12482996D01*
X5882300Y12757184D01*
X5889265Y12898488D01*
X11767783Y12898488D01*
X11809213Y12618870D01*
X11904397Y12352708D01*
X11971329Y12227486D01*
X12215298Y12155903D01*
X13028395Y12969000D01*
X13387605Y12969000D01*
X14200702Y12155903D01*
X14444671Y12227486D01*
X14565571Y12482996D01*
X14634300Y12757184D01*
X14648217Y13039512D01*
X14606787Y13319130D01*
X14511603Y13585292D01*
X14444671Y13710514D01*
X14200702Y13782097D01*
X13387605Y12969000D01*
X13028395Y12969000D01*
X12215298Y13782097D01*
X11971329Y13710514D01*
X11850429Y13455004D01*
X11781700Y13180816D01*
X11767783Y12898488D01*
X5889265Y12898488D01*
X5896217Y13039512D01*
X5854787Y13319130D01*
X5852370Y13325890D01*
X6305524Y13325890D01*
X6426845Y13096000D01*
X7620000Y13096000D01*
X7620000Y14289814D01*
X7874000Y14289814D01*
X7874000Y13096000D01*
X9067155Y13096000D01*
X9188476Y13325890D01*
X9143825Y13473099D01*
X9018641Y13735920D01*
X8850233Y13961702D01*
X12394903Y13961702D01*
X13208000Y13148605D01*
X14021097Y13961702D01*
X13949514Y14205671D01*
X13694004Y14326571D01*
X13419816Y14395300D01*
X13137488Y14409217D01*
X12857870Y14367787D01*
X12591708Y14272603D01*
X12466486Y14205671D01*
X12394903Y13961702D01*
X8850233Y13961702D01*
X8844588Y13969269D01*
X8628355Y14164178D01*
X8378252Y14313157D01*
X8103891Y14410481D01*
X7874000Y14289814D01*
X7620000Y14289814D01*
X7390109Y14410481D01*
X7115748Y14313157D01*
X6865645Y14164178D01*
X6649412Y13969269D01*
X6475359Y13735920D01*
X6350175Y13473099D01*
X6305524Y13325890D01*
X5852370Y13325890D01*
X5759603Y13585292D01*
X5692671Y13710514D01*
X5448702Y13782097D01*
X4635605Y12969000D01*
X4276395Y12969000D01*
X4262253Y12983142D01*
X4441858Y13162747D01*
X4456000Y13148605D01*
X5269097Y13961702D01*
X5197514Y14205671D01*
X4942004Y14326571D01*
X4788270Y14365107D01*
X4901267Y14637906D01*
X4991000Y15089023D01*
X4991000Y15548977D01*
X4901267Y16000094D01*
X4725250Y16425037D01*
X4469713Y16807476D01*
X4144476Y17132713D01*
X3762037Y17388250D01*
X3337094Y17564267D01*
X2885977Y17654000D01*
X2426023Y17654000D01*
X1974906Y17564267D01*
X1549963Y17388250D01*
X1167524Y17132713D01*
X842287Y16807476D01*
X660000Y16534664D01*
X660000Y18136000D01*
X5055001Y18136000D01*
X5055000Y17239582D01*
M02*
