G04 #@! TF.GenerationSoftware,KiCad,Pcbnew,(5.1.5)-3*
G04 #@! TF.CreationDate,2023-08-31T22:46:46+02:00*
G04 #@! TF.ProjectId,usb-trace-adapter,7573622d-7472-4616-9365-2d6164617074,A*
G04 #@! TF.SameCoordinates,PX57b03e0PY53d00e0*
G04 #@! TF.FileFunction,Soldermask,Bot*
G04 #@! TF.FilePolarity,Negative*
%FSLAX46Y46*%
G04 Gerber Fmt 4.6, Leading zero omitted, Abs format (unit mm)*
G04 Created by KiCad (PCBNEW (5.1.5)-3) date 2023-08-31 22:46:46*
%MOMM*%
%LPD*%
G04 APERTURE LIST*
%ADD10C,0.050000*%
%ADD11C,0.020000*%
G04 APERTURE END LIST*
D10*
X11430000Y0D02*
X20955000Y0D01*
X6985000Y1270000D02*
X10160000Y1270000D01*
X10160000Y1270000D02*
G75*
G02X11430000Y0I0J-1270000D01*
G01*
X5715000Y0D02*
G75*
G02X6985000Y1270000I1270000J0D01*
G01*
X11430000Y18796000D02*
X20955000Y18796000D01*
X11430000Y17272000D02*
X11430000Y18796000D01*
X5715000Y17272000D02*
X5715000Y18796000D01*
X10160000Y16002000D02*
X6985000Y16002000D01*
X11430000Y17272000D02*
G75*
G02X10160000Y16002000I-1270000J0D01*
G01*
X6985000Y16002000D02*
G75*
G02X5715000Y17272000I0J1270000D01*
G01*
X0Y18796000D02*
X0Y0D01*
X5715000Y18796000D02*
X0Y18796000D01*
X20955000Y0D02*
X20955000Y18796000D01*
X0Y0D02*
X5715000Y0D01*
D11*
G36*
X16381465Y4426839D02*
G01*
X16670626Y4307065D01*
X16930865Y4133179D01*
X17152179Y3911865D01*
X17326065Y3651626D01*
X17445839Y3362465D01*
X17506900Y3055493D01*
X17506900Y2742507D01*
X17445839Y2435535D01*
X17326065Y2146374D01*
X17152179Y1886135D01*
X16930865Y1664821D01*
X16670626Y1490935D01*
X16381465Y1371161D01*
X16074493Y1310100D01*
X15761507Y1310100D01*
X15454535Y1371161D01*
X15165374Y1490935D01*
X14905135Y1664821D01*
X14683821Y1886135D01*
X14509935Y2146374D01*
X14390161Y2435535D01*
X14329100Y2742507D01*
X14329100Y3055493D01*
X14390161Y3362465D01*
X14509935Y3651626D01*
X14683821Y3911865D01*
X14905135Y4133179D01*
X15165374Y4307065D01*
X15454535Y4426839D01*
X15761507Y4487900D01*
X16074493Y4487900D01*
X16381465Y4426839D01*
G37*
G36*
X3177803Y5339154D02*
G01*
X3503362Y5204303D01*
X3796357Y5008530D01*
X4045530Y4759357D01*
X4241303Y4466362D01*
X4376154Y4140803D01*
X4444900Y3795191D01*
X4444900Y3442809D01*
X4376154Y3097197D01*
X4241303Y2771638D01*
X4045530Y2478643D01*
X3796357Y2229470D01*
X3503362Y2033697D01*
X3177803Y1898846D01*
X2832191Y1830100D01*
X2479809Y1830100D01*
X2134197Y1898846D01*
X1808638Y2033697D01*
X1515643Y2229470D01*
X1266470Y2478643D01*
X1070697Y2771638D01*
X935846Y3097197D01*
X867100Y3442809D01*
X867100Y3795191D01*
X935846Y4140803D01*
X1070697Y4466362D01*
X1266470Y4759357D01*
X1515643Y5008530D01*
X1808638Y5204303D01*
X2134197Y5339154D01*
X2479809Y5407900D01*
X2832191Y5407900D01*
X3177803Y5339154D01*
G37*
G36*
X8685900Y4410100D02*
G01*
X6808100Y4410100D01*
X6808100Y6287900D01*
X8685900Y6287900D01*
X8685900Y4410100D01*
G37*
G36*
X14096900Y5080100D02*
G01*
X12319100Y5080100D01*
X12319100Y6857900D01*
X14096900Y6857900D01*
X14096900Y5080100D01*
G37*
G36*
X4715283Y6823740D02*
G01*
X4877052Y6756733D01*
X5022641Y6659454D01*
X5146454Y6535641D01*
X5243733Y6390052D01*
X5310740Y6228283D01*
X5344900Y6056549D01*
X5344900Y5881451D01*
X5310740Y5709717D01*
X5243733Y5547948D01*
X5146454Y5402359D01*
X5022641Y5278546D01*
X4877052Y5181267D01*
X4715283Y5114260D01*
X4543549Y5080100D01*
X4368451Y5080100D01*
X4196717Y5114260D01*
X4034948Y5181267D01*
X3889359Y5278546D01*
X3765546Y5402359D01*
X3668267Y5547948D01*
X3601260Y5709717D01*
X3567100Y5881451D01*
X3567100Y6056549D01*
X3601260Y6228283D01*
X3668267Y6390052D01*
X3765546Y6535641D01*
X3889359Y6659454D01*
X4034948Y6756733D01*
X4196717Y6823740D01*
X4368451Y6857900D01*
X4543549Y6857900D01*
X4715283Y6823740D01*
G37*
G36*
X2728127Y7810090D02*
G01*
X2827773Y7790270D01*
X2934952Y7745875D01*
X3031403Y7681429D01*
X3113429Y7599403D01*
X3177875Y7502952D01*
X3222270Y7395773D01*
X3242090Y7296127D01*
X3243213Y7290485D01*
X3244900Y7282001D01*
X3244900Y7165999D01*
X3222270Y7052227D01*
X3177875Y6945048D01*
X3113429Y6848597D01*
X3031403Y6766571D01*
X2934952Y6702125D01*
X2827773Y6657730D01*
X2728127Y6637910D01*
X2714002Y6635100D01*
X2597998Y6635100D01*
X2583873Y6637910D01*
X2484227Y6657730D01*
X2377048Y6702125D01*
X2280597Y6766571D01*
X2198571Y6848597D01*
X2134125Y6945048D01*
X2089730Y7052227D01*
X2067100Y7165999D01*
X2067100Y7282001D01*
X2068788Y7290485D01*
X2069910Y7296127D01*
X2089730Y7395773D01*
X2134125Y7502952D01*
X2198571Y7599403D01*
X2280597Y7681429D01*
X2377048Y7745875D01*
X2484227Y7790270D01*
X2583873Y7810090D01*
X2597998Y7812900D01*
X2714002Y7812900D01*
X2728127Y7810090D01*
G37*
G36*
X8020867Y8791819D02*
G01*
X8191736Y8721042D01*
X8345514Y8618291D01*
X8476291Y8487514D01*
X8579042Y8333736D01*
X8649819Y8162867D01*
X8685900Y7981474D01*
X8685900Y7796526D01*
X8649819Y7615133D01*
X8579042Y7444264D01*
X8476291Y7290486D01*
X8345514Y7159709D01*
X8191736Y7056958D01*
X8020867Y6986181D01*
X7839474Y6950100D01*
X7654526Y6950100D01*
X7473133Y6986181D01*
X7302264Y7056958D01*
X7148486Y7159709D01*
X7017709Y7290486D01*
X6914958Y7444264D01*
X6844181Y7615133D01*
X6808100Y7796526D01*
X6808100Y7981474D01*
X6844181Y8162867D01*
X6914958Y8333736D01*
X7017709Y8487514D01*
X7148486Y8618291D01*
X7302264Y8721042D01*
X7473133Y8791819D01*
X7654526Y8827900D01*
X7839474Y8827900D01*
X8020867Y8791819D01*
G37*
G36*
X4715283Y9323740D02*
G01*
X4877052Y9256733D01*
X5022641Y9159454D01*
X5146454Y9035641D01*
X5243733Y8890052D01*
X5310740Y8728283D01*
X5344900Y8556549D01*
X5344900Y8381451D01*
X5310740Y8209717D01*
X5243733Y8047948D01*
X5146454Y7902359D01*
X5022641Y7778546D01*
X4877052Y7681267D01*
X4715283Y7614260D01*
X4543549Y7580100D01*
X4368451Y7580100D01*
X4196717Y7614260D01*
X4034948Y7681267D01*
X3889359Y7778546D01*
X3765546Y7902359D01*
X3668267Y8047948D01*
X3601260Y8209717D01*
X3567100Y8381451D01*
X3567100Y8556549D01*
X3601260Y8728283D01*
X3668267Y8890052D01*
X3765546Y9035641D01*
X3889359Y9159454D01*
X4034948Y9256733D01*
X4196717Y9323740D01*
X4368451Y9357900D01*
X4543549Y9357900D01*
X4715283Y9323740D01*
G37*
G36*
X13467283Y9323740D02*
G01*
X13629052Y9256733D01*
X13774641Y9159454D01*
X13898454Y9035641D01*
X13995733Y8890052D01*
X14062740Y8728283D01*
X14096900Y8556549D01*
X14096900Y8381451D01*
X14062740Y8209717D01*
X13995733Y8047948D01*
X13898454Y7902359D01*
X13774641Y7778546D01*
X13629052Y7681267D01*
X13467283Y7614260D01*
X13295549Y7580100D01*
X13120451Y7580100D01*
X12948717Y7614260D01*
X12786948Y7681267D01*
X12641359Y7778546D01*
X12517546Y7902359D01*
X12420267Y8047948D01*
X12353260Y8209717D01*
X12319100Y8381451D01*
X12319100Y8556549D01*
X12353260Y8728283D01*
X12420267Y8890052D01*
X12517546Y9035641D01*
X12641359Y9159454D01*
X12786948Y9256733D01*
X12948717Y9323740D01*
X13120451Y9357900D01*
X13295549Y9357900D01*
X13467283Y9323740D01*
G37*
G36*
X8020867Y11331819D02*
G01*
X8191736Y11261042D01*
X8345514Y11158291D01*
X8476291Y11027514D01*
X8579042Y10873736D01*
X8649819Y10702867D01*
X8685900Y10521474D01*
X8685900Y10336526D01*
X8649819Y10155133D01*
X8579042Y9984264D01*
X8476291Y9830486D01*
X8345514Y9699709D01*
X8191736Y9596958D01*
X8020867Y9526181D01*
X7839474Y9490100D01*
X7654526Y9490100D01*
X7473133Y9526181D01*
X7302264Y9596958D01*
X7148486Y9699709D01*
X7017709Y9830486D01*
X6914958Y9984264D01*
X6844181Y10155133D01*
X6808100Y10336526D01*
X6808100Y10521474D01*
X6844181Y10702867D01*
X6914958Y10873736D01*
X7017709Y11027514D01*
X7148486Y11158291D01*
X7302264Y11261042D01*
X7473133Y11331819D01*
X7654526Y11367900D01*
X7839474Y11367900D01*
X8020867Y11331819D01*
G37*
G36*
X4715283Y11323740D02*
G01*
X4877052Y11256733D01*
X5022641Y11159454D01*
X5146454Y11035641D01*
X5243733Y10890052D01*
X5310740Y10728283D01*
X5344900Y10556549D01*
X5344900Y10381451D01*
X5310740Y10209717D01*
X5243733Y10047948D01*
X5146454Y9902359D01*
X5022641Y9778546D01*
X4877052Y9681267D01*
X4715283Y9614260D01*
X4543549Y9580100D01*
X4368451Y9580100D01*
X4196717Y9614260D01*
X4034948Y9681267D01*
X3889359Y9778546D01*
X3765546Y9902359D01*
X3668267Y10047948D01*
X3601260Y10209717D01*
X3567100Y10381451D01*
X3567100Y10556549D01*
X3601260Y10728283D01*
X3668267Y10890052D01*
X3765546Y11035641D01*
X3889359Y11159454D01*
X4034948Y11256733D01*
X4196717Y11323740D01*
X4368451Y11357900D01*
X4543549Y11357900D01*
X4715283Y11323740D01*
G37*
G36*
X13467283Y11323740D02*
G01*
X13629052Y11256733D01*
X13774641Y11159454D01*
X13898454Y11035641D01*
X13995733Y10890052D01*
X14062740Y10728283D01*
X14096900Y10556549D01*
X14096900Y10381451D01*
X14062740Y10209717D01*
X13995733Y10047948D01*
X13898454Y9902359D01*
X13774641Y9778546D01*
X13629052Y9681267D01*
X13467283Y9614260D01*
X13295549Y9580100D01*
X13120451Y9580100D01*
X12948717Y9614260D01*
X12786948Y9681267D01*
X12641359Y9778546D01*
X12517546Y9902359D01*
X12420267Y10047948D01*
X12353260Y10209717D01*
X12319100Y10381451D01*
X12319100Y10556549D01*
X12353260Y10728283D01*
X12420267Y10890052D01*
X12517546Y11035641D01*
X12641359Y11159454D01*
X12786948Y11256733D01*
X12948717Y11323740D01*
X13120451Y11357900D01*
X13295549Y11357900D01*
X13467283Y11323740D01*
G37*
G36*
X2728127Y12300090D02*
G01*
X2827773Y12280270D01*
X2934952Y12235875D01*
X3031403Y12171429D01*
X3113429Y12089403D01*
X3177875Y11992952D01*
X3222270Y11885773D01*
X3244900Y11772001D01*
X3244900Y11655999D01*
X3222270Y11542227D01*
X3177875Y11435048D01*
X3113429Y11338597D01*
X3031403Y11256571D01*
X2934952Y11192125D01*
X2827773Y11147730D01*
X2728127Y11127910D01*
X2714002Y11125100D01*
X2597998Y11125100D01*
X2583873Y11127910D01*
X2484227Y11147730D01*
X2377048Y11192125D01*
X2280597Y11256571D01*
X2198571Y11338597D01*
X2134125Y11435048D01*
X2089730Y11542227D01*
X2067100Y11655999D01*
X2067100Y11772001D01*
X2089730Y11885773D01*
X2134125Y11992952D01*
X2198571Y12089403D01*
X2280597Y12171429D01*
X2377048Y12235875D01*
X2484227Y12280270D01*
X2583873Y12300090D01*
X2597998Y12302900D01*
X2714002Y12302900D01*
X2728127Y12300090D01*
G37*
G36*
X8020867Y13871819D02*
G01*
X8191736Y13801042D01*
X8345514Y13698291D01*
X8476291Y13567514D01*
X8579042Y13413736D01*
X8649819Y13242867D01*
X8685900Y13061474D01*
X8685900Y12876526D01*
X8649819Y12695133D01*
X8579042Y12524264D01*
X8476291Y12370486D01*
X8345514Y12239709D01*
X8191736Y12136958D01*
X8020867Y12066181D01*
X7839474Y12030100D01*
X7654526Y12030100D01*
X7473133Y12066181D01*
X7302264Y12136958D01*
X7148486Y12239709D01*
X7017709Y12370486D01*
X6914958Y12524264D01*
X6844181Y12695133D01*
X6808100Y12876526D01*
X6808100Y13061474D01*
X6844181Y13242867D01*
X6914958Y13413736D01*
X7017709Y13567514D01*
X7148486Y13698291D01*
X7302264Y13801042D01*
X7473133Y13871819D01*
X7654526Y13907900D01*
X7839474Y13907900D01*
X8020867Y13871819D01*
G37*
G36*
X13467283Y13823740D02*
G01*
X13629052Y13756733D01*
X13774641Y13659454D01*
X13898454Y13535641D01*
X13995733Y13390052D01*
X14062740Y13228283D01*
X14096900Y13056549D01*
X14096900Y12881451D01*
X14062740Y12709717D01*
X13995733Y12547948D01*
X13898454Y12402359D01*
X13774641Y12278546D01*
X13629052Y12181267D01*
X13467283Y12114260D01*
X13295549Y12080100D01*
X13120451Y12080100D01*
X12948717Y12114260D01*
X12786948Y12181267D01*
X12641359Y12278546D01*
X12517546Y12402359D01*
X12420267Y12547948D01*
X12353260Y12709717D01*
X12319100Y12881451D01*
X12319100Y13056549D01*
X12353260Y13228283D01*
X12420267Y13390052D01*
X12517546Y13535641D01*
X12641359Y13659454D01*
X12786948Y13756733D01*
X12948717Y13823740D01*
X13120451Y13857900D01*
X13295549Y13857900D01*
X13467283Y13823740D01*
G37*
G36*
X4715283Y13823740D02*
G01*
X4877052Y13756733D01*
X5022641Y13659454D01*
X5146454Y13535641D01*
X5243733Y13390052D01*
X5310740Y13228283D01*
X5344900Y13056549D01*
X5344900Y12881451D01*
X5310740Y12709717D01*
X5243733Y12547948D01*
X5146454Y12402359D01*
X5022641Y12278546D01*
X4877052Y12181267D01*
X4715283Y12114260D01*
X4543549Y12080100D01*
X4368451Y12080100D01*
X4196717Y12114260D01*
X4034948Y12181267D01*
X3889359Y12278546D01*
X3765546Y12402359D01*
X3668267Y12547948D01*
X3601260Y12709717D01*
X3567100Y12881451D01*
X3567100Y13056549D01*
X3601260Y13228283D01*
X3668267Y13390052D01*
X3765546Y13535641D01*
X3889359Y13659454D01*
X4034948Y13756733D01*
X4196717Y13823740D01*
X4368451Y13857900D01*
X4543549Y13857900D01*
X4715283Y13823740D01*
G37*
G36*
X3177803Y17039154D02*
G01*
X3503362Y16904303D01*
X3796357Y16708530D01*
X4045530Y16459357D01*
X4241303Y16166362D01*
X4376154Y15840803D01*
X4444900Y15495191D01*
X4444900Y15142809D01*
X4376154Y14797197D01*
X4241303Y14471638D01*
X4045530Y14178643D01*
X3796357Y13929470D01*
X3503362Y13733697D01*
X3177803Y13598846D01*
X2832191Y13530100D01*
X2479809Y13530100D01*
X2134197Y13598846D01*
X1808638Y13733697D01*
X1515643Y13929470D01*
X1266470Y14178643D01*
X1070697Y14471638D01*
X935846Y14797197D01*
X867100Y15142809D01*
X867100Y15495191D01*
X935846Y15840803D01*
X1070697Y16166362D01*
X1266470Y16459357D01*
X1515643Y16708530D01*
X1808638Y16904303D01*
X2134197Y17039154D01*
X2479809Y17107900D01*
X2832191Y17107900D01*
X3177803Y17039154D01*
G37*
G36*
X16381465Y17566839D02*
G01*
X16670626Y17447065D01*
X16930865Y17273179D01*
X17152179Y17051865D01*
X17326065Y16791626D01*
X17445839Y16502465D01*
X17506900Y16195493D01*
X17506900Y15882507D01*
X17445839Y15575535D01*
X17326065Y15286374D01*
X17152179Y15026135D01*
X16930865Y14804821D01*
X16670626Y14630935D01*
X16381465Y14511161D01*
X16074493Y14450100D01*
X15761507Y14450100D01*
X15454535Y14511161D01*
X15165374Y14630935D01*
X14905135Y14804821D01*
X14683821Y15026135D01*
X14509935Y15286374D01*
X14390161Y15575535D01*
X14329100Y15882507D01*
X14329100Y16195493D01*
X14390161Y16502465D01*
X14509935Y16791626D01*
X14683821Y17051865D01*
X14905135Y17273179D01*
X15165374Y17447065D01*
X15454535Y17566839D01*
X15761507Y17627900D01*
X16074493Y17627900D01*
X16381465Y17566839D01*
G37*
M02*
