G04 #@! TF.GenerationSoftware,KiCad,Pcbnew,(5.1.5)-3*
G04 #@! TF.CreationDate,2023-08-31T22:46:46+02:00*
G04 #@! TF.ProjectId,usb-trace-adapter,7573622d-7472-4616-9365-2d6164617074,A*
G04 #@! TF.SameCoordinates,PX57b03e0PY53d00e0*
G04 #@! TF.FileFunction,Legend,Bot*
G04 #@! TF.FilePolarity,Positive*
%FSLAX46Y46*%
G04 Gerber Fmt 4.6, Leading zero omitted, Abs format (unit mm)*
G04 Created by KiCad (PCBNEW (5.1.5)-3) date 2023-08-31 22:46:46*
%MOMM*%
%LPD*%
G04 APERTURE LIST*
%ADD10C,0.050000*%
%ADD11C,0.150000*%
G04 APERTURE END LIST*
D10*
X11430000Y0D02*
X20955000Y0D01*
X6985000Y1270000D02*
X10160000Y1270000D01*
X10160000Y1270000D02*
G75*
G02X11430000Y0I0J-1270000D01*
G01*
X5715000Y0D02*
G75*
G02X6985000Y1270000I1270000J0D01*
G01*
D11*
X20041619Y1255143D02*
X19232095Y1255143D01*
X19136857Y1302762D01*
X19089238Y1350381D01*
X19041619Y1445620D01*
X19041619Y1636096D01*
X19089238Y1731334D01*
X19136857Y1778953D01*
X19232095Y1826572D01*
X20041619Y1826572D01*
X19089238Y2255143D02*
X19041619Y2398000D01*
X19041619Y2636096D01*
X19089238Y2731334D01*
X19136857Y2778953D01*
X19232095Y2826572D01*
X19327333Y2826572D01*
X19422571Y2778953D01*
X19470190Y2731334D01*
X19517809Y2636096D01*
X19565428Y2445620D01*
X19613047Y2350381D01*
X19660666Y2302762D01*
X19755904Y2255143D01*
X19851142Y2255143D01*
X19946380Y2302762D01*
X19994000Y2350381D01*
X20041619Y2445620D01*
X20041619Y2683715D01*
X19994000Y2826572D01*
X19565428Y3588477D02*
X19517809Y3731334D01*
X19470190Y3778953D01*
X19374952Y3826572D01*
X19232095Y3826572D01*
X19136857Y3778953D01*
X19089238Y3731334D01*
X19041619Y3636096D01*
X19041619Y3255143D01*
X20041619Y3255143D01*
X20041619Y3588477D01*
X19994000Y3683715D01*
X19946380Y3731334D01*
X19851142Y3778953D01*
X19755904Y3778953D01*
X19660666Y3731334D01*
X19613047Y3683715D01*
X19565428Y3588477D01*
X19565428Y3255143D01*
X20041619Y4874191D02*
X20041619Y5445620D01*
X19041619Y5159905D02*
X20041619Y5159905D01*
X19041619Y5778953D02*
X19708285Y5778953D01*
X19517809Y5778953D02*
X19613047Y5826572D01*
X19660666Y5874191D01*
X19708285Y5969429D01*
X19708285Y6064667D01*
X19041619Y6826572D02*
X19565428Y6826572D01*
X19660666Y6778953D01*
X19708285Y6683715D01*
X19708285Y6493239D01*
X19660666Y6398000D01*
X19089238Y6826572D02*
X19041619Y6731334D01*
X19041619Y6493239D01*
X19089238Y6398000D01*
X19184476Y6350381D01*
X19279714Y6350381D01*
X19374952Y6398000D01*
X19422571Y6493239D01*
X19422571Y6731334D01*
X19470190Y6826572D01*
X19089238Y7731334D02*
X19041619Y7636096D01*
X19041619Y7445620D01*
X19089238Y7350381D01*
X19136857Y7302762D01*
X19232095Y7255143D01*
X19517809Y7255143D01*
X19613047Y7302762D01*
X19660666Y7350381D01*
X19708285Y7445620D01*
X19708285Y7636096D01*
X19660666Y7731334D01*
X19089238Y8540858D02*
X19041619Y8445620D01*
X19041619Y8255143D01*
X19089238Y8159905D01*
X19184476Y8112286D01*
X19565428Y8112286D01*
X19660666Y8159905D01*
X19708285Y8255143D01*
X19708285Y8445620D01*
X19660666Y8540858D01*
X19565428Y8588477D01*
X19470190Y8588477D01*
X19374952Y8112286D01*
X19327333Y9731334D02*
X19327333Y10207524D01*
X19041619Y9636096D02*
X20041619Y9969429D01*
X19041619Y10302762D01*
X19041619Y11064667D02*
X20041619Y11064667D01*
X19089238Y11064667D02*
X19041619Y10969429D01*
X19041619Y10778953D01*
X19089238Y10683715D01*
X19136857Y10636096D01*
X19232095Y10588477D01*
X19517809Y10588477D01*
X19613047Y10636096D01*
X19660666Y10683715D01*
X19708285Y10778953D01*
X19708285Y10969429D01*
X19660666Y11064667D01*
X19708285Y11540858D02*
X18708285Y11540858D01*
X19660666Y11540858D02*
X19708285Y11636096D01*
X19708285Y11826572D01*
X19660666Y11921810D01*
X19613047Y11969429D01*
X19517809Y12017048D01*
X19232095Y12017048D01*
X19136857Y11969429D01*
X19089238Y11921810D01*
X19041619Y11826572D01*
X19041619Y11636096D01*
X19089238Y11540858D01*
X19708285Y12302762D02*
X19708285Y12683715D01*
X20041619Y12445620D02*
X19184476Y12445620D01*
X19089238Y12493239D01*
X19041619Y12588477D01*
X19041619Y12683715D01*
X19041619Y14350381D02*
X19517809Y14017048D01*
X19041619Y13778953D02*
X20041619Y13778953D01*
X20041619Y14159905D01*
X19994000Y14255143D01*
X19946380Y14302762D01*
X19851142Y14350381D01*
X19708285Y14350381D01*
X19613047Y14302762D01*
X19565428Y14255143D01*
X19517809Y14159905D01*
X19517809Y13778953D01*
X19089238Y15159905D02*
X19041619Y15064667D01*
X19041619Y14874191D01*
X19089238Y14778953D01*
X19184476Y14731334D01*
X19565428Y14731334D01*
X19660666Y14778953D01*
X19708285Y14874191D01*
X19708285Y15064667D01*
X19660666Y15159905D01*
X19565428Y15207524D01*
X19470190Y15207524D01*
X19374952Y14731334D01*
X19708285Y15540858D02*
X19041619Y15778953D01*
X19708285Y16017048D01*
X19327333Y17112286D02*
X19327333Y17588477D01*
X19041619Y17017048D02*
X20041619Y17350381D01*
X19041619Y17683715D01*
X17391619Y4564667D02*
X18391619Y4564667D01*
X18391619Y4802762D01*
X18344000Y4945620D01*
X18248761Y5040858D01*
X18153523Y5088477D01*
X17963047Y5136096D01*
X17820190Y5136096D01*
X17629714Y5088477D01*
X17534476Y5040858D01*
X17439238Y4945620D01*
X17391619Y4802762D01*
X17391619Y4564667D01*
X17391619Y5993239D02*
X17915428Y5993239D01*
X18010666Y5945620D01*
X18058285Y5850381D01*
X18058285Y5659905D01*
X18010666Y5564667D01*
X17439238Y5993239D02*
X17391619Y5898000D01*
X17391619Y5659905D01*
X17439238Y5564667D01*
X17534476Y5517048D01*
X17629714Y5517048D01*
X17724952Y5564667D01*
X17772571Y5659905D01*
X17772571Y5898000D01*
X17820190Y5993239D01*
X18058285Y6469429D02*
X17391619Y6469429D01*
X17963047Y6469429D02*
X18010666Y6517048D01*
X18058285Y6612286D01*
X18058285Y6755143D01*
X18010666Y6850381D01*
X17915428Y6898000D01*
X17391619Y6898000D01*
X17391619Y7374191D02*
X18058285Y7374191D01*
X18391619Y7374191D02*
X18344000Y7326572D01*
X18296380Y7374191D01*
X18344000Y7421810D01*
X18391619Y7374191D01*
X18296380Y7374191D01*
X17439238Y8231334D02*
X17391619Y8136096D01*
X17391619Y7945620D01*
X17439238Y7850381D01*
X17534476Y7802762D01*
X17915428Y7802762D01*
X18010666Y7850381D01*
X18058285Y7945620D01*
X18058285Y8136096D01*
X18010666Y8231334D01*
X17915428Y8278953D01*
X17820190Y8278953D01*
X17724952Y7802762D01*
X17391619Y8850381D02*
X17439238Y8755143D01*
X17534476Y8707524D01*
X18391619Y8707524D01*
X17439238Y9945620D02*
X17391619Y10088477D01*
X17391619Y10326572D01*
X17439238Y10421810D01*
X17486857Y10469429D01*
X17582095Y10517048D01*
X17677333Y10517048D01*
X17772571Y10469429D01*
X17820190Y10421810D01*
X17867809Y10326572D01*
X17915428Y10136096D01*
X17963047Y10040858D01*
X18010666Y9993239D01*
X18105904Y9945620D01*
X18201142Y9945620D01*
X18296380Y9993239D01*
X18344000Y10040858D01*
X18391619Y10136096D01*
X18391619Y10374191D01*
X18344000Y10517048D01*
X18058285Y10802762D02*
X18058285Y11183715D01*
X18391619Y10945620D02*
X17534476Y10945620D01*
X17439238Y10993239D01*
X17391619Y11088477D01*
X17391619Y11183715D01*
X17391619Y11945620D02*
X17915428Y11945620D01*
X18010666Y11898000D01*
X18058285Y11802762D01*
X18058285Y11612286D01*
X18010666Y11517048D01*
X17439238Y11945620D02*
X17391619Y11850381D01*
X17391619Y11612286D01*
X17439238Y11517048D01*
X17534476Y11469429D01*
X17629714Y11469429D01*
X17724952Y11517048D01*
X17772571Y11612286D01*
X17772571Y11850381D01*
X17820190Y11945620D01*
X17391619Y12421810D02*
X18058285Y12421810D01*
X17867809Y12421810D02*
X17963047Y12469429D01*
X18010666Y12517048D01*
X18058285Y12612286D01*
X18058285Y12707524D01*
X17391619Y13040858D02*
X18391619Y13040858D01*
X17772571Y13136096D02*
X17391619Y13421810D01*
X18058285Y13421810D02*
X17677333Y13040858D01*
X17439238Y14231334D02*
X17391619Y14136096D01*
X17391619Y13945620D01*
X17439238Y13850381D01*
X17534476Y13802762D01*
X17915428Y13802762D01*
X18010666Y13850381D01*
X18058285Y13945620D01*
X18058285Y14136096D01*
X18010666Y14231334D01*
X17915428Y14278953D01*
X17820190Y14278953D01*
X17724952Y13802762D01*
D10*
X11430000Y18796000D02*
X20955000Y18796000D01*
X11430000Y17272000D02*
X11430000Y18796000D01*
X5715000Y17272000D02*
X5715000Y18796000D01*
X10160000Y16002000D02*
X6985000Y16002000D01*
X11430000Y17272000D02*
G75*
G02X10160000Y16002000I-1270000J0D01*
G01*
X6985000Y16002000D02*
G75*
G02X5715000Y17272000I0J1270000D01*
G01*
X0Y18796000D02*
X0Y0D01*
X5715000Y18796000D02*
X0Y18796000D01*
X20955000Y0D02*
X20955000Y18796000D01*
X0Y0D02*
X5715000Y0D01*
M02*
